v -266.25 257.632172 -255
v -266.25 -257.632172 -255
v 266.25 -257.632172 -255
v 266.25 257.632172 -255
v -38.2999878 -7.63214111 -4
v -38.2999878 -39.6321411 -4
v 38.2999878 -39.6321411 -4
v 38.2999878 -7.63214111 -4
v -38.2999878 39.6321411 -4
v -38.2999878 7.63214111 -4
v 38.2999878 7.63214111 -4
v 38.2999878 39.6321411 -4
v 38.2999878 -7.63214111 -4
v 38.2999878 -7.63214111 -5
v -38.2999878 -7.63214111 -4
v -38.2999878 -7.63214111 -5
v -38.2999878 -39.6321411 -4
v -38.2999878 -39.6321411 -5
v 38.2999878 -39.6321411 -4
v 38.2999878 -39.6321411 -5
v 38.2999878 39.6321411 -4
v 38.2999878 39.6321411 -5
v -38.2999878 39.6321411 -4
v -38.2999878 39.6321411 -5
v -38.2999878 7.63214111 -4
v -38.2999878 7.63214111 -5
v 38.2999878 7.63214111 -4
v 38.2999878 7.63214111 -5
v -38.2999878 -4.63214111 -5
v -38.2999878 -7.63214111 -5
v 38.2999878 -7.63214111 -5
v 38.2999878 -4.63214111 -5
v -38.2999878 7.63214111 -5
v -38.2999878 4.63214111 -5
v 38.2999878 4.63214111 -5
v 38.2999878 7.63214111 -5
v 38.2999878 -4.63214111 -5
v 38.2999878 -4.63214111 -30.8999996
v -38.2999878 -4.63214111 -5
v -38.2999878 -4.63214111 -30.8999996
v -38.2999878 -39.6321411 -5
v -38.2999878 -39.6321411 -30.8999996
v 38.2999878 -39.6321411 -5
v 38.2999878 -39.6321411 -30.8999996
v 38.2999878 39.6321411 -5
v 38.2999878 39.6321411 -30.8999996
v -38.2999878 39.6321411 -5
v -38.2999878 39.6321411 -30.8999996
v -38.2999878 4.63214111 -5
v -38.2999878 4.63214111 -30.8999996
v 38.2999878 4.63214111 -5
v 38.2999878 4.63214111 -30.8999996
v -38.5 107.5 -30.8999996
v -38.5 -107.5 -30.8999996
v -38.2999878 -107.5 -30.8999996
v -38.2999878 -4.63213348 -30.8999996
v -38.2999878 39.6321411 -30.8999996
v -38.2999878 107.5 -30.8999996
v -38.2999878 -39.6321411 -30.8999996
v -38.2999878 -107.5 -30.8999996
v 38.2999878 -107.5 -30.8999996
v 38.2999878 -39.6321411 -30.8999996
v -38.2999878 4.63213348 -30.8999996
v -38.2999878 -4.63213348 -30.8999996
v 38.2999878 -4.63213348 -30.8999996
v 38.2999878 4.63213348 -30.8999996
v -38.2999878 107.5 -30.8999996
v -38.2999878 39.6321411 -30.8999996
v 38.2999878 39.6321411 -30.8999996
v 38.2999878 107.5 -30.8999996
v 38.2999878 107.5 -30.8999996
v 38.2999878 -107.5 -30.8999996
v 38.5 -107.5 -30.8999996
v 38.5 107.5 -30.8999996
v -38.5 -107.5 -30.8999996
v -38.5 -107.5 -68.9000015
v 38.5 -107.5 -30.8999996
v 38.5 -107.5 -68.9000015
v 38.5 107.5 -30.8999996
v 38.5 107.5 -68.9000015
v -38.5 107.5 -30.8999996
v -38.5 107.5 -68.9000015
v -266.25 257.632202 -68.9000015
v -266.25 -257.632202 -68.9000015
v -38.4999771 -257.632202 -68.9000015
v -38.4999771 107.5 -68.9000015
v -38.4999771 257.632202 -68.9000015
v -38.4999771 -107.5 -68.9000015
v -38.4999771 -257.632202 -68.9000015
v 38.5000076 -257.632202 -68.9000015
v 38.5000076 -107.5 -68.9000015
v -38.4999771 257.632202 -68.9000015
v -38.4999771 107.5 -68.9000015
v 38.5000076 107.5 -68.9000015
v 38.5000076 257.632202 -68.9000015
v 38.5000076 257.632202 -68.9000015
v 38.5000076 -257.632202 -68.9000015
v 266.25 -257.632202 -68.9000015
v 266.25 257.632202 -68.9000015
v -266.25 -257.632172 -68.9000015
v -266.25 -257.632172 -255
v 266.25 -257.632172 -68.9000015
v 266.25 -257.632172 -255
v 266.25 257.632172 -68.9000015
v 266.25 257.632172 -255
v -266.25 257.632172 -68.9000015
v -266.25 257.632172 -255
vn 0 0 -1
vn 0 0 -1
vn 0 0 -1
vn 0 0 -1
vn 0 0 1
vn 0 0 1
vn 0 0 1
vn 0 0 1
vn 0 0 1
vn 0 0 1
vn 0 0 1
vn 0 0 1
vn 0.707106709 0.707106769 0
vn 0.707106709 0.707106769 0
vn -0.707106769 0.707106769 0
vn -0.707106769 0.707106769 0
vn -0.707106709 -0.707106769 0
vn -0.707106709 -0.707106769 0
vn 0.707106769 -0.707106769 0
vn 0.707106769 -0.707106769 0
vn 0.707106709 0.707106769 0
vn 0.707106709 0.707106769 0
vn -0.707106769 0.707106769 0
vn -0.707106769 0.707106769 0
vn -0.707106709 -0.707106769 0
vn -0.707106709 -0.707106769 0
vn 0.707106769 -0.707106769 0
vn 0.707106769 -0.707106769 0
vn 0 0 1
vn 0 0 1
vn 0 0 1
vn 0 0 1
vn 0 0 1
vn 0 0 1
vn 0 0 1
vn 0 0 1
vn 0.707106709 0.707106769 0
vn 0.707106709 0.707106769 0
vn -0.707106709 0.707106769 0
vn -0.707106709 0.707106769 0
vn -0.707106709 -0.707106769 0
vn -0.707106709 -0.707106769 0
vn 0.707106709 -0.707106769 0
vn 0.707106709 -0.707106769 0
vn 0.707106709 0.707106769 0
vn 0.707106709 0.707106769 0
vn -0.707106709 0.707106769 0
vn -0.707106709 0.707106769 0
vn -0.707106709 -0.707106769 0
vn -0.707106709 -0.707106769 0
vn 0.707106709 -0.707106769 0
vn 0.707106709 -0.707106769 0
vn 0 0 1
vn 0 0 1
vn 0 0 1
vn 0 0 1
vn 0 0 1
vn 0 0 1
vn 0 0 1
vn 0 0 1
vn 0 0 1
vn 0 0 1
vn 0 0 1
vn 0 0 1
vn 0 0 1
vn 0 0 1
vn 0 0 1
vn 0 0 1
vn 0 0 1
vn 0 0 1
vn 0 0 1
vn 0 0 1
vn 0 0 1
vn 0 0 1
vn -0.707106769 -0.707106769 0
vn -0.707106769 -0.707106769 0
vn 0.707106769 -0.707106769 0
vn 0.707106769 -0.707106769 0
vn 0.707106769 0.707106769 0
vn 0.707106769 0.707106769 0
vn -0.707106769 0.707106769 0
vn -0.707106769 0.707106769 0
vn 0 0 1
vn 0 0 1
vn 0 0 1
vn 0 0 1
vn 0 0 1
vn 0 0 1
vn 0 0 1
vn 0 0 1
vn 0 0 1
vn 0 0 1
vn 0 0 1
vn 0 0 1
vn 0 0 1
vn 0 0 1
vn 0 0 1
vn 0 0 1
vn 0 0 1
vn -0.707106829 -0.707106709 0
vn -0.707106829 -0.707106709 0
vn 0.707106769 -0.707106769 0
vn 0.707106769 -0.707106769 0
vn 0.707106829 0.707106709 0
vn 0.707106829 0.707106709 0
vn -0.707106769 0.707106769 0
vn -0.707106769 0.707106769 0
f 1//1 3//3 2//2
f 1//1 4//4 3//3
f 5//5 6//6 7//7
f 5//5 7//7 8//8
f 9//9 10//10 11//11
f 9//9 11//11 12//12
f 19//19 20//20 13//13
f 20//20 14//14 13//13
f 13//13 14//14 15//15
f 14//14 16//16 15//15
f 15//15 16//16 17//17
f 16//16 18//18 17//17
f 17//17 18//18 19//19
f 18//18 20//20 19//19
f 27//27 28//28 21//21
f 28//28 22//22 21//21
f 21//21 22//22 23//23
f 22//22 24//24 23//23
f 23//23 24//24 25//25
f 24//24 26//26 25//25
f 25//25 26//26 27//27
f 26//26 28//28 27//27
f 29//29 30//30 31//31
f 29//29 31//31 32//32
f 33//33 34//34 35//35
f 33//33 35//35 36//36
f 43//43 44//44 37//37
f 44//44 38//38 37//37
f 37//37 38//38 39//39
f 38//38 40//40 39//39
f 39//39 40//40 41//41
f 40//40 42//42 41//41
f 41//41 42//42 43//43
f 42//42 44//44 43//43
f 51//51 52//52 45//45
f 52//52 46//46 45//45
f 45//45 46//46 47//47
f 46//46 48//48 47//47
f 47//47 48//48 49//49
f 48//48 50//50 49//49
f 49//49 50//50 51//51
f 50//50 52//52 51//51
f 53//53 54//54 55//55
f 53//53 55//55 56//56
f 53//53 56//56 57//57
f 53//53 57//57 58//58
f 59//59 60//60 61//61
f 59//59 61//61 62//62
f 63//63 64//64 65//65
f 63//63 65//65 66//66
f 67//67 68//68 69//69
f 67//67 69//69 70//70
f 71//71 72//72 73//73
f 71//71 73//73 74//74
f 81//81 82//82 75//75
f 82//82 76//76 75//75
f 75//75 76//76 77//77
f 76//76 78//78 77//77
f 77//77 78//78 79//79
f 78//78 80//80 79//79
f 79//79 80//80 81//81
f 80//80 82//82 81//81
f 83//83 84//84 85//85
f 83//83 85//85 86//86
f 83//83 86//86 87//87
f 88//88 89//89 90//90
f 88//88 90//90 91//91
f 92//92 93//93 94//94
f 92//92 94//94 95//95
f 96//96 97//97 98//98
f 96//96 98//98 99//99
f 106//106 107//107 100//100
f 107//107 101//101 100//100
f 100//100 101//101 102//102
f 101//101 103//103 102//102
f 102//102 103//103 104//104
f 103//103 105//105 104//104
f 104//104 105//105 106//106
f 105//105 107//107 106//106
